<svg width="29" height="22" viewBox="0 0 29 22" fill="none" xmlns="http://www.w3.org/2000/svg">
<path d="M7.1539 21.938C5.8739 21.938 4.78057 21.698 3.8739 21.218C3.02057 20.738 2.32723 20.0713 1.7939 19.218C1.26057 18.418 0.860566 17.458 0.593899 16.338C0.327232 15.1646 0.193899 14.0713 0.193899 13.058C0.193899 10.3913 0.860566 7.96463 2.1939 5.77796C3.58057 3.53796 5.68723 1.7513 8.5139 0.417967L9.2339 1.85797C7.68723 2.49797 6.32723 3.5113 5.1539 4.89797C4.0339 6.28463 3.36723 7.69797 3.1539 9.13796C2.9939 10.1513 3.02057 11.0846 3.2339 11.938C4.30057 10.8713 5.66057 10.338 7.3139 10.338C9.02057 10.338 10.4339 10.8446 11.5539 11.858C12.6739 12.8713 13.2339 14.3113 13.2339 16.178C13.2339 17.8846 12.6472 19.2713 11.4739 20.338C10.3006 21.4046 8.86057 21.938 7.1539 21.938ZM22.6739 21.938C21.3939 21.938 20.3006 21.698 19.3939 21.218C18.5406 20.738 17.8472 20.0713 17.3139 19.218C16.7806 18.418 16.3806 17.458 16.1139 16.338C15.8472 15.1646 15.7139 14.0713 15.7139 13.058C15.7139 10.3913 16.3806 7.96463 17.7139 5.77796C19.1006 3.53796 21.2072 1.7513 24.0339 0.417967L24.7539 1.85797C23.2072 2.49797 21.8472 3.5113 20.6739 4.89797C19.5539 6.28463 18.8872 7.69797 18.6739 9.13796C18.5139 10.1513 18.5406 11.0846 18.7539 11.938C19.8206 10.8713 21.1806 10.338 22.8339 10.338C24.5406 10.338 25.9539 10.8446 27.0739 11.858C28.1939 12.8713 28.7539 14.3113 28.7539 16.178C28.7539 17.8846 28.1672 19.2713 26.9939 20.338C25.8206 21.4046 24.3806 21.938 22.6739 21.938Z" fill="url(#paint0_linear_86_176)" fill-opacity="0.3"/>
<defs>
<linearGradient id="paint0_linear_86_176" x1="17.5547" y1="-11.756" x2="-3.97519" y2="-9.77768" gradientUnits="userSpaceOnUse">
<stop offset="0.279902" stop-color="#C38B34"/>
<stop offset="0.803825" stop-color="#ECC47E"/>
</linearGradient>
</defs>
</svg>
